<svg width="206" height="160" viewBox="0 0 206 160" fill="none" xmlns="http://www.w3.org/2000/svg">
<path d="M33.7692 79.9231C79.9231 18.3846 126.077 18.3846 172.231 79.9231M33.7692 79.9231C79.9231 141.462 126.077 141.462 172.231 79.9231M33.7692 79.9231L18.3846 64.5385C74.7949 3 128.641 3 179.923 64.5385L203 95.3077M172.231 79.9231L187.615 95.3077C131.205 156.846 77.359 156.846 26.0769 95.3077L3 64.5385M3 64.5385V95.3077C69.6667 177.359 136.333 177.359 203 95.3077M3 64.5385C69.6667 -17.5128 136.333 -17.5128 203 64.5385V95.3077" stroke="#48BEFF" stroke-width="5" stroke-linecap="round" stroke-linejoin="round"/>
</svg>
